<?xml version="1.0" encoding="iso-8859-1"?>
<!-- Generator: Adobe Illustrator 19.0.0, SVG Export Plug-In . SVG Version: 6.00 Build 0)  -->
<svg version="1.1" id="Capa_1" xmlns="http://www.w3.org/2000/svg" xmlns:xlink="http://www.w3.org/1999/xlink" x="0px" y="0px"
	 viewBox="0 0 512 512" style="enable-background:new 0 0 512 512;" xml:space="preserve">
<path style="fill:#F5B955;" d="M352.836,317.337c22.502-23.823,36.3-55.958,36.3-91.316c0-59.861-39.541-110.484-93.929-127.182
	c-53.153,16.364-92.487,65.31-94.068,123.475c-1.013,37.256,13.298,71.169,37.086,95.902c22.499,23.391,34.767,54.778,34.767,87.233
	v1.554h44.239v-1.552C317.232,372.574,330.262,341.236,352.836,317.337z"/>
<path style="fill:#BEBEBE;" d="M317.232,434.385v-27.382h-68.571v27.382c0,17.461,14.155,31.616,31.616,31.616h5.34
	C303.077,466.001,317.232,451.845,317.232,434.385z"/>
<path style="fill:#F0F0FA;" d="M256,502L256,502c-13.255,0-23.999-10.745-23.999-23.999v-12H280v12C280,491.254,269.255,502,256,502
	z"/>
<path d="M256.124,82.998c-0.346,0-0.694,0.002-1.041,0.004c-41.121,0.29-80.224,18.446-107.281,49.811
	c-3.607,4.182-3.142,10.496,1.04,14.104c4.183,3.608,10.497,3.14,14.104-1.04c23.29-26.998,56.925-42.626,92.278-42.875
	c0.301-0.002,0.597-0.004,0.896-0.004c32.701,0,63.453,12.668,86.673,35.724c23.436,23.27,36.343,54.274,36.343,87.3
	c0,31.539-11.922,61.531-33.569,84.449c-22.728,24.062-36.068,54.518-38.07,86.532H288V291.005h6.333
	c14.521,0,26.333-11.813,26.333-26.332v-1.334c0-14.521-11.813-26.332-26.333-26.332S268,248.819,268,263.339v7.667h-23.999v-7.667
	c0-14.521-11.813-26.332-26.332-26.332h-1.694c-14.521,0-26.332,11.813-26.332,26.332v1.334c0,14.521,11.813,26.332,26.332,26.332
	h8.027v105.997h-19.259c-1.94-32.37-15.015-62.544-37.308-85.719c-23.02-23.936-35.202-55.437-34.298-88.699
	c0.15-5.521-4.203-10.118-9.725-10.268c-5.545-0.188-10.117,4.203-10.268,9.725c-1.051,38.661,13.11,75.277,39.876,103.106
	c20.619,21.435,31.974,49.953,31.974,80.3v1.555v27.382c0,21.388,16.221,39.053,37.006,41.355v2.261
	C222,496.748,237.252,512,255.999,512s33.999-15.252,33.999-33.999v-2.232c20.894-2.198,37.232-19.917,37.232-41.384v-27.382v-1.552
	c0-29.949,11.675-58.804,32.873-81.247c25.169-26.645,39.03-61.515,39.03-98.183c0-38.395-15.005-74.437-42.251-101.492
	C329.889,97.724,294.142,82.998,256.124,82.998z M288,263.339c0-3.492,2.841-6.333,6.333-6.333s6.334,2.841,6.334,6.333v1.334
	c0,3.492-2.842,6.333-6.334,6.333H288V263.339z M215.974,271.006c-3.492,0-6.333-2.841-6.333-6.333v-1.334
	c0-3.492,2.841-6.333,6.333-6.333h1.694c3.492,0,6.333,2.841,6.333,6.333v7.667L215.974,271.006L215.974,271.006z M244.001,291.005
	H268v105.997h-23.999L244.001,291.005L244.001,291.005z M270,478.001c0,7.72-6.28,14-14,14c-7.72,0-14-6.28-14-14v-2H270V478.001z
	 M307.232,434.385c0,11.92-9.697,21.616-21.616,21.616H280h-47.999h-5.39c-11.92,0-21.617-9.697-21.617-21.616v-17.383h102.238
	V434.385z"/>
<path d="M256,57.344c5.522,0,10-4.478,10-10V10c0-5.522-4.478-10-10-10c-5.522,0-10,4.478-10,10v37.344
	C246.001,52.866,250.478,57.344,256,57.344z"/>
<path d="M472.02,216.021h-37.344c-5.522,0-10,4.478-10,10c0,5.522,4.478,10,10,10h37.344c5.522,0,10-4.478,10-10
	C482.02,220.499,477.543,216.021,472.02,216.021z"/>
<path d="M77.324,216.021H39.98c-5.522,0-10,4.478-10,10c0,5.522,4.478,10,10,10h37.344c5.522,0,10-4.478,10-10
	C87.323,220.499,82.847,216.021,77.324,216.021z"/>
<path d="M129.656,109.677c2.559,0,5.118-0.977,7.071-2.929c3.905-3.905,3.905-10.237,0-14.143l-26.405-26.406
	c-3.905-3.903-10.235-3.905-14.143,0c-3.905,3.905-3.905,10.237,0,14.143l26.405,26.406
	C124.539,108.7,127.097,109.677,129.656,109.677z"/>
<path d="M401.679,66.199l-26.405,26.406c-3.905,3.905-3.905,10.237,0,14.143c1.953,1.952,4.512,2.929,7.071,2.929
	s5.118-0.977,7.071-2.929l26.405-26.406c3.905-3.905,3.905-10.237,0-14.143C411.915,62.296,405.585,62.296,401.679,66.199z"/>
<path d="M312.764,142.487c-16.832-11.495-36.506-17.559-56.95-17.559c-0.242,0-0.488,0.001-0.73,0.002
	c-5.523,0.039-9.969,4.548-9.93,10.07c0.039,5.499,4.509,9.93,9.999,9.93c0.023,0,0.048,0,0.071,0
	c0.199-0.002,0.394-0.002,0.592-0.002c33.297,0,62.792,19.892,75.246,50.807c1.57,3.898,5.318,6.267,9.278,6.267
	c1.244,0,2.51-0.234,3.733-0.728c5.123-2.063,7.603-7.89,5.539-13.012C342.119,169.663,329.378,153.834,312.764,142.487z"/>
<path d="M339.828,218.951c-1.86,1.859-2.92,4.439-2.92,7.069s1.06,5.21,2.92,7.07c1.859,1.86,4.439,2.93,7.08,2.93
	c2.63,0,5.21-1.069,7.069-2.93c1.86-1.86,2.92-4.44,2.92-7.07s-1.06-5.21-2.92-7.069c-1.859-1.86-4.439-2.931-7.069-2.931
	C344.267,216.02,341.687,217.091,339.828,218.951z"/>
<path d="M126.434,167.432c-1.86,1.87-2.93,4.44-2.93,7.08c0,2.63,1.069,5.2,2.93,7.07c1.86,1.859,4.44,2.93,7.07,2.93
	s5.21-1.07,7.069-2.93c1.86-1.87,2.931-4.44,2.931-7.07c0-2.64-1.07-5.21-2.931-7.08c-1.859-1.86-4.439-2.92-7.069-2.92
	S128.293,165.571,126.434,167.432z"/>
<g>
</g>
<g>
</g>
<g>
</g>
<g>
</g>
<g>
</g>
<g>
</g>
<g>
</g>
<g>
</g>
<g>
</g>
<g>
</g>
<g>
</g>
<g>
</g>
<g>
</g>
<g>
</g>
<g>
</g>
</svg>
